{"title":"Temptation Confession of a Marriage Counselor (2013) 720p BRrip","uid":8832590,"size":920769112,"categoryP":"video","categoryS":"hd___movies","magnet":"?xt=urn:btih:37b2d31030e5de8f1f4c06d83bd650aa7e23980b&amp;dn=Temptation+Confession+of+a+Marriage+Counselor+%282013%29+720p+BRrip+&amp;tr=udp%3A%2F%2Ftracker.openbittorrent.com%3A80&amp;tr=udp%3A%2F%2Fopen.demonii.com%3A1337&amp;tr=udp%3A%2F%2Ftracker.coppersurfer.tk%3A6969&amp;tr=udp%3A%2F%2Fexodus.desync.com%3A6969","seeders":4,"leechers":0,"uploader":"junaidzia","files":14,"time":1377027222,"description":"[IMG]http://imageshack.us/a/img407/9853/9e8n.jpg[/IMG]\n\n\nIMDB : \n\n         &lt;a href=&quot; http://www.imdb.com/title/tt2070862&quot; rel=&quot;nofollow&quot; target=&quot;_NEW&quot;&gt; http://www.imdb.com/title/tt2070862&lt;/a&gt;\n\n\n[IMG]http://imageshack.us/a/img191/651/hy4g.jpg[/IMG]\n\n[b]General[/b]\nFormat                         : Matroska\nFormat version                 : Version 4 / Version 2\nFile size                      : 878 MiB\nDuration                       : 1h 51mn\n\n[b]Video[/b]\nID                             : 1\nFormat                         : AVC\nFormat/Info                    : Advanced Video Codec\nFormat profile                 : &lt;a class=&quot;__cf_email__&quot; href=&quot;/cdn-cgi/l/email-protection&quot; data-cfemail=&quot;440c2d232c0408706a75&quot;&gt;[email&amp;#160;protected]&lt;/a&gt;&lt;script cf-hash='f9e31' type=&quot;text/javascript&quot;&gt;\n/* &lt;![CDATA[ */!function(){try{var t=&quot;currentScript&quot;in document?document.currentScript:function(){for(var t=document.getElementsByTagName(&quot;script&quot;),e=t.length;e--;)if(t[e].getAttribute(&quot;cf-hash&quot;))return t[e]}();if(t&amp;&amp;t.previousSibling){var e,r,n,i,c=t.previousSibling,a=c.getAttribute(&quot;data-cfemail&quot;);if(a){for(e=&quot;&quot;,r=parseInt(a.substr(0,2),16),n=2;a.length-n;n+=2)i=parseInt(a.substr(n,2),16)^r,e+=String.fromCharCode(i);e=document.createTextNode(e),c.parentNode.replaceChild(e,c)}}}catch(u){}}();/* ]]&gt; */&lt;/script&gt;\nFormat settings, CABAC         : Yes\nFormat settings, ReFrames      : 5 frames\nCodec ID                       : V_MPEG4/ISO/AVC\nDuration                       : 1h 51mn\nWidth                          : 1 280 pixels\nHeight                         : 544 pixels\nDisplay aspect ratio           : 2.35:1\nFrame rate mode                : Constant\nFrame rate                     : 23.976 fps\nColor space                    : YUV\nChroma subsampling             : 4:2:0\nBit depth                      : 8 bits\nScan type                      : Progressive\nBits/(Pixel*Frame)             : 0.054\nStream size                    : 707 MiB (81%)\nTitle                          : Encoder Junaid-Zia\nLanguage                       : English\nDefault                        : Yes\nForced                         : No\n\n[b]Audio[/b]\nID                             : 2\nFormat                         : AC-3\nFormat/Info                    : Audio Coding 3\nMode extension                 : CM (complete main)\nFormat settings, Endianness    : Big\nCodec ID                       : A_AC3\nDuration                       : 1h 51mn\nBit rate mode                  : Constant\nBit rate                       : 192 Kbps\nChannel(s)                     : 6 channels\nChannel positions              : Front: L C R, Side: L R, LFE\nSampling rate                  : 48.0 KHz\nBit depth                      : 16 bits\nCompression mode               : Lossy\nStream size                    : 153 MiB (17%)\nTitle                          : Encoder Junaid-Zia\nLanguage                       : English\nDefault                        : Yes\nForced                         : No\n\n[b]Text[/b]\nFormat                         : UTF-8\nCodec ID                       : S_TEXT/UTF8\nCodec ID/Info                  : UTF-8 Plain Text\nLanguage                       : English\nDefault                        : Yes\nForced                         : No\n\n\n &lt;a href=&quot;\nhttp://www.piczhub.com/image1/2013/08/20/1_10.jpg&quot; rel=&quot;nofollow&quot; target=&quot;_NEW&quot;&gt;\nhttp://www.piczhub.com/image1/2013/08/20/1_10.jpg&lt;/a&gt; &lt;a href=&quot;\nhttp://www.piczhub.com/image1/2013/08/20/1_9.jpg&quot; rel=&quot;nofollow&quot; target=&quot;_NEW&quot;&gt;\nhttp://www.piczhub.com/image1/2013/08/20/1_9.jpg&lt;/a&gt; &lt;a href=&quot;\nhttp://www.piczhub.com/image1/2013/08/20/1_8.jpg&quot; rel=&quot;nofollow&quot; target=&quot;_NEW&quot;&gt;\nhttp://www.piczhub.com/image1/2013/08/20/1_8.jpg&lt;/a&gt; &lt;a href=&quot;\nhttp://www.piczhub.com/image1/2013/08/20/1_7.jpg&quot; rel=&quot;nofollow&quot; target=&quot;_NEW&quot;&gt;\nhttp://www.piczhub.com/image1/2013/08/20/1_7.jpg&lt;/a&gt; &lt;a href=&quot;\nhttp://www.piczhub.com/image1/2013/08/20/1_6.jpg&quot; rel=&quot;nofollow&quot; target=&quot;_NEW&quot;&gt;\nhttp://www.piczhub.com/image1/2013/08/20/1_6.jpg&lt;/a&gt; &lt;a href=&quot;\nhttp://www.piczhub.com/image1/2013/08/20/1_5.jpg&quot; rel=&quot;nofollow&quot; target=&quot;_NEW&quot;&gt;\nhttp://www.piczhub.com/image1/2013/08/20/1_5.jpg&lt;/a&gt; &lt;a href=&quot;\nhttp://www.piczhub.com/image1/2013/08/20/1_4.jpg&quot; rel=&quot;nofollow&quot; target=&quot;_NEW&quot;&gt;\nhttp://www.piczhub.com/image1/2013/08/20/1_4.jpg&lt;/a&gt; &lt;a href=&quot;\nhttp://www.piczhub.com/image1/2013/08/20/1_3.jpg&quot; rel=&quot;nofollow&quot; target=&quot;_NEW&quot;&gt;\nhttp://www.piczhub.com/image1/2013/08/20/1_3.jpg&lt;/a&gt; &lt;a href=&quot;\nhttp://www.piczhub.com/image1/2013/08/20/1_2.jpg&quot; rel=&quot;nofollow&quot; target=&quot;_NEW&quot;&gt;\nhttp://www.piczhub.com/image1/2013/08/20/1_2.jpg&lt;/a&gt; &lt;a href=&quot;\nhttp://www.piczhub.com/image1/2013/08/20/1_1.jpg&quot; rel=&quot;nofollow&quot; target=&quot;_NEW&quot;&gt;\nhttp://www.piczhub.com/image1/2013/08/20/1_1.jpg&lt;/a&gt;\n\n\n\n[b]Seed After Downloading, Remember Sharing is Caring.[/b]","torrent":{"xt":"urn:btih:37b2d31030e5de8f1f4c06d83bd650aa7e23980b","amp;dn":"Temptation+Confession+of+a+Marriage+Counselor+%282013%29+720p+BRrip+","amp;tr":["udp%3A%2F%2Ftracker.openbittorrent.com%3A80","udp%3A%2F%2Fopen.demonii.com%3A1337","udp%3A%2F%2Ftracker.coppersurfer.tk%3A6969","udp%3A%2F%2Fexodus.desync.com%3A6969"],"infoHash":"37b2d31030e5de8f1f4c06d83bd650aa7e23980b","infoHashBuffer":{"type":"Buffer","data":[55,178,211,16,48,229,222,143,31,76,6,216,59,214,80,170,126,35,152,11]},"announce":[],"urlList":[]}}